<svg width="260" height="260" viewBox="0 0 260 260" fill="none" xmlns="http://www.w3.org/2000/svg">
<circle cx="130" cy="130" r="130" fill="white"/>
<path d="M55.2344 107.234L57.168 94.666C57.8125 90.3691 58.9583 86.86 60.6055 84.1387C62.2526 81.4173 65.153 78.4453 69.3066 75.2227C73.3887 71.9284 79.7624 67.2734 88.4277 61.2578C109.268 46.7201 125.488 39.4512 137.09 39.4512C140.599 39.4512 143.07 40.1673 144.502 41.5996C146.006 43.0319 146.758 45.5384 146.758 49.1191C146.758 51.6257 145.791 55.0632 143.857 59.4316C141.995 63.8001 138.522 70.7109 133.438 80.1641C128.424 89.6172 123.984 98.1035 120.117 105.623C116.966 111.782 113.385 118.335 109.375 125.281C105.365 132.156 102.679 136.883 101.318 139.461C99.9577 142.039 99.2773 143.973 99.2773 145.262C99.2773 146.694 99.7428 147.947 100.674 149.021C101.605 150.024 102.751 150.525 104.111 150.525C105.973 150.525 108.05 149.523 110.342 147.518C112.705 145.512 117.288 141.18 124.092 134.52C127.386 131.225 130.895 127.322 134.619 122.811C138.415 118.299 143.105 112.498 148.691 105.408C154.277 98.3184 159.434 91.7298 164.16 85.6426C167.096 81.847 169.746 78.4453 172.109 75.4375C174.473 72.4297 176.478 70.138 178.125 68.5625C179.844 66.9154 181.204 66.0918 182.207 66.0918C183.066 66.0918 184.463 67.166 186.396 69.3145L188.975 72.6445C190.908 75.3659 191.875 77.3353 191.875 78.5527C191.875 79.985 189.189 85.2487 183.818 94.3438C178.519 103.367 174.007 111.209 170.283 117.869C166.559 124.458 161.725 134.018 155.781 146.551C149.909 159.012 144.251 172.869 138.809 188.123C153.346 177.166 163.301 169.861 168.672 166.209C174.043 162.485 177.946 160.623 180.381 160.623C182.028 160.623 182.852 161.303 182.852 162.664C182.852 164.168 182.064 166.137 180.488 168.572C178.913 170.936 176.8 173.585 174.15 176.521C171.501 179.386 167.49 183.54 162.119 188.982C156.82 194.497 151.019 200.441 144.717 206.814C140.85 210.753 137.09 215.337 133.438 220.564C129.785 225.792 126.956 229.839 124.951 232.703C122.946 235.568 121.12 237.215 119.473 237.645C117.038 238.361 114.818 237.824 112.812 236.033C110.807 234.243 109.805 231.414 109.805 227.547C109.805 224.826 111.165 219.204 113.887 210.682C116.68 202.16 120.869 191.561 126.455 178.885C129.749 171.294 133.115 164.132 136.553 157.4C139.99 150.597 143.929 143.149 148.369 135.057C152.881 126.893 157.285 119.158 161.582 111.854C165.879 104.549 169.531 98.3184 172.539 93.1621C165.378 102.544 158.252 111.674 151.162 120.555C144.144 129.363 136.266 138.673 127.529 148.484C118.864 158.224 110.091 167.355 101.211 175.877C97.3438 179.529 94.5508 182 92.832 183.289C91.1849 184.65 89.0007 185.33 86.2793 185.33C84.5605 185.33 82.8776 184.721 81.2305 183.504C79.6549 182.358 78.3301 180.854 77.2559 178.992C76.1816 177.059 75.6445 175.197 75.6445 173.406C75.6445 170.398 76.0742 167.749 76.9336 165.457C77.8646 163.165 79.4401 159.728 81.6602 155.145C91.3997 135.451 98.4896 121.951 102.93 114.646C118.828 89.1517 126.777 74.8646 126.777 71.7852C126.777 70.7826 126.419 69.9948 125.703 69.4219C124.987 68.7773 124.092 68.4551 123.018 68.4551C121.012 68.4551 118.613 69.3503 115.82 71.1406C113.027 72.8594 109.518 75.4375 105.293 78.875C101.068 82.3125 95.9115 86.4303 89.8242 91.2285C83.8086 96.0267 77.4707 100.61 70.8105 104.979C68.1608 106.697 65.1888 108.738 61.8945 111.102C58.5286 113.465 56.5951 114.646 56.0938 114.646C55.0911 114.646 54.5898 114.145 54.5898 113.143C54.5898 112.212 54.8047 110.242 55.2344 107.234Z" fill="black"/>
</svg>
